# AST/ASF file generated using VICON BodyLanguage
# -----------------------------------------------
:version 1.10
:name VICON
:units
  mass 1.0
  length 0.45
  angle deg
:documentation
   .ast/.asf automatically generated from VICON data using
   VICON BodyBuilder and BodyLanguage model FoxedUp or BRILLIANT.MOD
:root
   order TX TY TZ RX RY RZ
   axis XYZ
   position 0 0 0  
   orientation 0 0 0 
:bonedata
  begin
     id 1 
     name lhipjoint
     direction 0.756833 -0.6125 0.228138 
     length 2.53827 
     axis 0 0 0  XYZ
  end
  begin
     id 2 
     name lfemur
     direction 0.34202 -0.939693 0  
     length 6.51821  
     axis 0 0 20  XYZ
    dof rx ry rz
    limits (-160.0 20.0)
           (-70.0 70.0)
           (-60.0 70.0)
  end
  begin
     id 3 
     name ltibia
     direction 0.34202 -0.939693 0   
     length 6.99902   
     axis 0 0 20   XYZ
    dof rx
    limits (-10.0 170.0)
  end
  begin
     id 4 
     name lfoot
     direction 0.0951515 -0.261427 0.960522   
     length 1.92102   
     axis -90 7.62852e-016 20   XYZ
    dof rx rz
    limits (-45.0 90.0)
           (-70.0 20.0)
  end
  begin
     id 5 
     name ltoes
     direction 1.53539e-011 -4.21781e-011 1   
     length 0.964376   
     axis -90 7.62852e-016 20   XYZ
    dof rx
    limits (-90.0 20.0)
  end
  begin
     id 6 
     name rhipjoint
     direction -0.752153 -0.617542 0.230017   
     length 2.51754  
     axis 0 0 0  XYZ 
  end
  begin
     id 7 
     name rfemur
     direction -0.34202 -0.939693 0   
     length 6.82377   
     axis 0 0 -20   XYZ
    dof rx ry rz
    limits (-160.0 20.0)
           (-70.0 70.0)
           (-70.0 60.0)
  end
  begin
     id 8 
     name rtibia
     direction -0.34202 -0.939693 0   
     length 6.98689   
     axis 0 0 -20   XYZ
    dof rx
    limits (-10.0 170.0)
 end
 begin
     id 9 
     name rfoot
     direction -0.0900426 -0.24739 0.964723   
     length 2.03215  
     axis -90 -7.62852e-016 -20   XYZ
    dof rx rz
    limits (-45.0 90.0)
           (-20.0 70.0)
  end
  begin
     id 10 
     name rtoes
     direction -1.53466e-011 -4.22206e-011 1   
     length 1.0197   
     axis -90 -7.62852e-016 -20   XYZ
    dof rx
    limits (-90.0 20.0)
  end
  begin
     id 11 
     name lowerback
     direction 0.0184183 0.995705 -0.0907278   
     length 2.019   
     axis 0 0 0   XYZ
    dof rx ry rz
    limits (-20.0 45.0)
           (-30.0 30.0)
           (-30.0 30.0)
  end
  begin
     id 12 
     name upperback
     direction 0.00281055 0.998777 0.0493607   
     length 1.99623   
     axis 0 0 0   XYZ
    dof rx ry rz
    limits (-20.0 45.0)
           (-30.0 30.0)
           (-30.0 30.0)
  end
  begin
     id 13 
     name thorax
     direction -0.00665507 0.995706 0.092331   
     length 2.02811   
     axis 0 0 0   XYZ
    dof rx ry rz
    limits (-20.0 45.0)
           (-30.0 30.0)
           (-30.0 30.0)
  end
  begin
     id 14 
     name lowerneck
     direction -0.0960965 0.994358 0.0449225   
     length 1.71265   
     axis 0 0 0   XYZ
    dof rx ry rz
    limits (-20.0 45.0)
           (-30.0 30.0)
           (-30.0 30.0)
  end
  begin
     id 15 
     name upperneck
     direction 0.13642 0.985357 -0.102278   
     length 1.73016   
     axis 0 0 0   XYZ
    dof rx ry rz
    limits (-20.0 45.0)
           (-30.0 30.0)
           (-30.0 30.0)
  end
  begin
     id 16
     name head
     direction 0.0556079 0.997632 -0.040479  
     length 1.74275  
     axis 0 0 0   XYZ
    dof rx ry rz
    limits (-20.0 45.0)
           (-30.0 30.0)
           (-30.0 30.0)
  end
  begin
     id 17 
     name lclavicle
     direction 0.90877 0.417247 -0.00652364  
     length 3.25514  
     axis 0 0 0   XYZ
    dof ry rz
    limits (-20.0 10.0)
           (0.0 20.0)
  end
  begin
     id 18 
     name lhumerus
     direction 1 -4.48949e-011 8.31417e-028   
     length 4.84834   
     axis 180 -30 -90   XYZ
    dof rx ry rz
    limits (-60.0 90.0)
           (-90.0 90.0)
           (-90.0 90.0)
  end
  begin
     id 19
     name lradius
     direction 1 -4.48984e-011 3.45616e-027   
     length 2.99713   
     axis 180 -30 -90   XYZ
    dof rx
    limits (-10.0 170.0)
  end
  begin
     id 20
     name lwrist
     direction 1 -4.4891e-011 4.0479e-027   
     length 1.49857   
     axis -1.61768e-015 90 90   XYZ
    dof ry
    limits (-180.0 0.0)
 end
  begin
     id 21 
     name lhand
     direction 1 -4.49025e-011 8.0958e-027   
     length 0.693987   
     axis -5.16581e-015 90 90   XYZ
    dof rx rz
    limits (-90.0 90.0)
           (-45.0 45.0)
  end
  begin
     id 22 
     name lfingers
     direction 1 -4.4888e-011 1.61916e-026   
     length 0.55951   
     axis -1.03316e-014 90 90   XYZ
    dof rx
    limits (0.0 90.0)
  end
  begin
     id 23
     name lthumb
     direction 0.707107 -6.3493e-011 0.707107   
     length 0.803348   
     axis -90 45 2.85299e-015   XYZ
    dof rx rz
    limits (-45.0 45.0)
           (-45.0 45.0)
  end
  begin
     id 24 
     name rclavicle
     direction -0.906655 0.41906 0.0486307   
     length 3.3311  
     axis 0 0 0   XYZ 
    dof ry rz
    limits (-10.0 20.0)
           (-20.0 0.0)
  end
  begin
     id 25 
     name rhumerus
     direction -1 -4.48959e-011 6.37764e-018  
     length 4.93457   
     axis 180 30 90   XYZ
    dof rx ry rz
    limits (-90.0 60.0)
           (-90.0 90.0)
           (-90.0 90.0)
  end
  begin
     id 26 
     name rradius
     direction -1 -4.48957e-011 2.20847e-027   
     length 3.3443   
     axis 180 30 90   XYZ
    dof rx
    limits (-10.0 170.0)
  end
  begin
     id 27 
     name rwrist
     direction -1 -4.49008e-011 4.0479e-027   
     length 1.67215   
     axis -1.61768e-015 -90 -90   XYZ
    dof ry
    limits (-180.0 0.0)
  end
  begin
     id 28
     name rhand
     direction -1 -4.49013e-011 8.0958e-027   
     length 0.677363   
     axis -5.16581e-015 -90 -90   XYZ
    dof rx rz
    limits (-90.0 90.0)
           (-45.0 45.0)
  end
  begin
     id 29
     name rfingers
     direction -1 -4.48832e-011 1.61916e-026   
     length 0.546107   
     axis -1.03316e-014 -90 -90   XYZ
    dof rx
    limits (0.0 90.0)
  end
  begin
     id 30
     name rthumb
     direction -0.707107 -6.34895e-011 0.707107   
     length 0.784104   
     axis -90 -45 -2.85299e-015   XYZ
    dof rx rz
    limits (-45.0 45.0)
           (-45.0 45.0)
  end
:hierarchy
  begin
    root lhipjoint rhipjoint lowerback
    lhipjoint lfemur
    lfemur ltibia
    ltibia lfoot
    lfoot ltoes
    rhipjoint rfemur
    rfemur rtibia
    rtibia rfoot
    rfoot rtoes
    lowerback upperback
    upperback thorax
    thorax lowerneck lclavicle rclavicle
    lowerneck upperneck
    upperneck head
    lclavicle lhumerus
    lhumerus lradius
    lradius lwrist
    lwrist lhand lthumb
    lhand lfingers
    rclavicle rhumerus
    rhumerus rradius
    rradius rwrist
    rwrist rhand rthumb
    rhand rfingers
  end

#!OML:ASF H:\Terrain\Patient Classification 1\junglegym\FridayTest\junglegym.ASF
:FULLY-SPECIFIED
:DEGREES
453
root 5.0441 19.9318 0.830897 211.841 -87.4901 -177.324
lowerback 3.69872 -0.188562 1.38021
upperback -2.99424 -0.225506 -0.800156
thorax -5.1825 -0.186394 -1.58422
lowerneck 5.86235 2.17815 -11.7469
upperneck 33.5776 -1.60966 9.71581
head 9.77458 -1.99555 5.39704
rclavicle 1.04362e-014 5.04913e-014
rhumerus 92.6109 -22.1004 -64.7899
rradius 52.6267
rwrist 12.5847
rhand -24.3005 38.3268
rfingers 7.12502
rthumb 2.18714 8.35825
lclavicle 1.04362e-014 5.04913e-014
lhumerus 94.1157 20.4313 61.649
lradius 57.2304
lwrist -32.6473
lhand -16.7324 26.1435
lfingers 7.12502
lthumb 9.49353 55.9097
rfemur -16.0814 -2.3232 19.2108
rtibia 60.3932
rfoot 3.7489 -5.53607
rtoes 40.7276
lfemur -11.0712 -5.7199 -26.3887
ltibia 34.6273
lfoot 17.1445 6.59516
ltoes 19.1167
454
root 5.18719 20.0706 0.844413 211.077 -87.506 -176.249
lowerback 4.15365 -0.214773 1.26698
upperback -2.85623 -0.254555 -0.707525
thorax -5.29762 -0.193155 -1.42167
lowerneck 5.8365 2.13018 -11.8349
upperneck 33.5085 -1.70026 9.86167
head 9.76295 -2.02747 5.46144
rclavicle -8.24956e-015 -3.37934e-014
rhumerus 92.7607 -22.1187 -64.9872
rradius 52.5686
rwrist 12.9939
rhand -24.4975 38.9902
rfingers 7.12502
rthumb 1.99685 9.01982
lclavicle -8.24956e-015 -3.37934e-014
lhumerus 94.3541 20.2577 62.4611
lradius 57.383
lwrist -32.4659
lhand -16.5985 24.2933
lfingers 7.12502
lthumb 9.62277 54.0535
rfemur -16.3718 -2.19807 19.5373
rtibia 59.7818
rfoot 5.25189 -4.99516
rtoes 20.9749
lfemur -11.0604 -6.64273 -26.1852
ltibia 32.824
lfoot 15.688 6.52543
ltoes 7.52185
455
root 5.34976 20.193 0.857479 207.633 -87.436 -172.847
lowerback 5.0371 -0.20585 1.33759
upperback -2.59251 -0.221248 -0.687536
thorax -5.52519 -0.176325 -1.44293
lowerneck 6.06659 2.02564 -11.2057
upperneck 32.8769 -1.58385 9.10933
head 9.47288 -1.93352 5.04977
rclavicle -1.50082e-014 -1.59028e-015
rhumerus 92.6897 -22.2718 -64.9504
rradius 52.8491
rwrist 12.8915
rhand -24.4435 39.0717
rfingers 7.12502
rthumb 2.04908 9.10179
lclavicle -1.50082e-014 -1.59028e-015
lhumerus 93.0958 20.4197 60.4318
lradius 57.7652
lwrist -36.1112
lhand -19.7692 32.5834
lfingers 7.12502
lthumb 6.56267 62.4617
rfemur -16.1051 -1.46696 19.773
rtibia 59.0131
rfoot 5.66941 -5.51732
rtoes 21.3222
lfemur -10.8813 -7.44685 -25.972
ltibia 31.3301
lfoot 12.6113 6.22968
ltoes -35.3221
456
root 5.51784 20.312 0.86905 210.93 -86.946 -177.226
lowerback 7.11454 -0.12503 0.781786
upperback -2.03382 -0.145658 -0.849788
thorax -6.1212 -0.119673 -1.30807
lowerneck 4.87386 2.45245 -12.2546
upperneck 33.6825 -1.2708 10.5915
head 9.93292 -1.7792 5.85226
rclavicle -1.5704e-014 -5.28767e-014
rhumerus 93.208 -22.1287 -65.4357
rradius 52.6894
rwrist 13.181
rhand -24.1866 39.0464
rfingers 7.12502
rthumb 2.29711 9.079
lclavicle -1.5704e-014 -5.28767e-014
lhumerus 92.8214 20.4488 59.9457
lradius 58.3834
lwrist -36.6887
lhand -20.5106 34.0492
lfingers 7.12502
lthumb 5.84687 63.9485
rfemur -14.9653 -0.952141 19.5164
rtibia 57.9946
rfoot 6.53855 -5.91798
rtoes 22.422
lfemur -9.80515 -8.05776 -26.4759
ltibia 30.3196
lfoot 13.2052 6.12264
ltoes -10.3327
457
root 5.64234 20.4527 0.890168 197.752 -86.9619 -164.071
lowerback 8.06863 -0.0887531 1.41138
upperback -1.72582 -0.0234222 -0.826601
thorax -6.33926 -0.0818098 -1.65566
lowerneck 4.53383 2.21009 -11.3035
upperneck 33.5085 -1.37941 9.93269
head 9.94737 -1.7454 5.42155
rclavicle 2.32578e-014 6.22196e-014
rhumerus 93.9248 -22.0395 -66.4997
rradius 52.3215
rwrist 14.1935
rhand -24.1672 39.609
rfingers 7.12502
rthumb 2.31586 9.64177
lclavicle 2.32578e-014 6.22196e-014
lhumerus 93.2103 20.5835 60.0645
lradius 58.8563
lwrist -35.6589
lhand -20.3977 32.5997
lfingers 7.12502
lthumb 5.95588 62.496
rfemur -14.8594 -0.48329 20.2904
rtibia 56.8285
rfoot 7.32641 -6.38587
rtoes 24.9308
lfemur -9.98496 -9.00384 -25.7071
ltibia 29.5539
lfoot 14.5524 6.00076
ltoes 18.0954
458
root 5.74387 20.568 0.856558 181.476 -87.5502 -146.633
lowerback 7.21813 -0.226586 1.64429
upperback -1.72253 -0.181909 -0.596403
thorax -5.85657 -0.159 -1.52407
lowerneck 5.83036 1.47678 -9.26224
upperneck 31.9638 -1.8901 7.91946
head 9.20177 -1.88724 4.22665
rclavicle 3.73715e-014 7.63333e-014
rhumerus 93.8312 -22.3053 -66.9462
rradius 52.5393
rwrist 14.2468
rhand -24.249 40.3174
rfingers 7.12502
rthumb 2.2369 10.3494
lclavicle 3.73715e-014 7.63333e-014
lhumerus 93.9558 20.5103 60.6226
lradius 58.9639
lwrist -34.0169
lhand -19.7193 29.6147
lfingers 7.12502
lthumb 6.61076 59.4915
rfemur -15.1911 0.388659 21.7249
rtibia 55.2842
rfoot 7.11499 -7.51593
rtoes 22.0226
lfemur -11.5903 -10.024 -24.0851
ltibia 29.0684
lfoot 9.76983 6.42424
ltoes -29.6577
459
root 5.85225 20.6915 0.856648 184.797 -87.5939 -149.234
lowerback 7.15267 -0.228019 1.24698
upperback -1.83567 -0.21989 -0.556841
thorax -5.9373 -0.164413 -1.25469
lowerneck 6.02155 1.91533 -10.4912
upperneck 32.0764 -1.60738 9.13261
head 9.17526 -1.8074 4.90457
rclavicle 7.35503e-015 9.93923e-015
rhumerus 93.1686 -22.4329 -66.5795
rradius 53.1261
rwrist 13.6466
rhand -24.4508 41.1868
rfingers 7.12502
rthumb 2.04196 11.2168
lclavicle 7.35503e-015 9.93923e-015
lhumerus 94.5329 19.9569 61.6198
lradius 58.844
lwrist -32.9384
lhand -18.9194 26.6325
lfingers 7.12502
lthumb 7.38291 56.4837
rfemur -15.8506 0.317385 21.9884
rtibia 53.9043
rfoot 7.77929 -7.45285
rtoes 20.6323
lfemur -12.8819 -10.9364 -23.8167
ltibia 28.7938
lfoot 8.60999 6.75341
ltoes -29.6851
460
root 5.97263 20.8015 0.853536 167.498 -87.5639 -132.233
lowerback 8.17528 -0.284946 1.65525
upperback -1.74359 -0.216549 -0.171222
thorax -6.42473 -0.173043 -1.08091
lowerneck 7.42621 1.68991 -10.2699
upperneck 31.1216 -1.79295 8.33961
head 8.61408 -1.93834 4.53762
rclavicle 1.15295e-014 2.38542e-014
rhumerus 92.9282 -22.1185 -66.4254
rradius 53.228
rwrist 13.9316
rhand -25.1749 42.1511
rfingers 7.12502
rthumb 1.3426 12.1756
lclavicle 1.15295e-014 2.38542e-014
lhumerus 94.5323 19.6951 62.1551
lradius 58.7021
lwrist -32.5305
lhand -18.8949 25.2051
lfingers 7.12502
lthumb 7.40658 55.0555
rfemur -15.2641 1.22105 22.9967
rtibia 52.5398
rfoot 7.94824 -7.84787
rtoes 19.9573
lfemur -13.0713 -11.3093 -22.8904
ltibia 28.5225
lfoot 7.63877 6.53594
ltoes -30.2429
461
root 6.08964 20.9043 0.854508 151.512 -87.4181 -116.687
lowerback 9.30636 -0.392992 2.21983
upperback -1.54615 -0.26339 0.018003
thorax -6.86664 -0.217007 -1.19137
lowerneck 7.42196 2.12494 -11.4299
upperneck 31.4313 -1.53315 9.54666
head 8.69012 -1.86684 5.1996
rclavicle 6.75868e-015 3.63776e-014
rhumerus 92.887 -22.0356 -66.5223
rradius 53.1527
rwrist 14.2462
rhand -25.5156 41.3258
rfingers 7.12502
rthumb 1.01358 11.3484
lclavicle 6.75868e-015 3.63776e-014
lhumerus 94.4545 19.6442 61.9655
lradius 58.3581
lwrist -32.9615
lhand -19.7672 24.8369
lfingers 7.12502
lthumb 6.56457 54.7152
rfemur -14.7936 1.85682 24.1022
rtibia 51.5868
rfoot 7.83643 -8.02979
rtoes 19.4812
lfemur -13.0327 -11.7868 -22.0424
ltibia 28.0328
lfoot 6.89169 6.26823
ltoes -29.1191
462
root 6.19124 21.0195 0.861326 173.796 -87.4787 -137.978
lowerback 9.1272 -0.263976 1.24912
upperback -1.76562 -0.229277 -0.33208
thorax -6.99186 -0.171003 -1.0178
lowerneck 5.57966 3.42468 -14.7949
upperneck 33.5154 -0.904571 14.2114
head 9.60154 -1.62781 7.71034
rclavicle -1.66979e-014 -4.03533e-014
rhumerus 92.661 -22.1425 -66.5004
rradius 53.3458
rwrist 14.3779
rhand -25.0971 38.6628
rfingers 7.12502
rthumb 1.41783 8.6878
lclavicle -1.66979e-014 -4.03533e-014
lhumerus 93.1761 20.1666 60.3474
lradius 60.0419
lwrist -31.9131
lhand -19.9703 25.6535
lfingers 7.12502
lthumb 6.36853 55.5378
rfemur -16.2887 2.5689 23.2325
rtibia 50.8089
rfoot 8.10372 -7.5528
rtoes 22.2502
lfemur -14.8072 -12.4487 -22.6342
ltibia 27.8917
lfoot 6.41673 6.45543
ltoes -29.4014
463
root 6.28506 21.1463 0.882753 192.284 -86.3548 -153.045
lowerback 6.62621 0.148 0.352514
upperback -2.58794 0.197302 -0.46527
thorax -6.41834 0.0700491 -0.707313
lowerneck 5.03721 3.82969 -16.317
upperneck 33.7655 -0.607467 15.7116
head 9.69483 -1.53662 8.62706
rclavicle -1.19271e-014 -1.33186e-014
rhumerus 92.8907 -22.0046 -66.3913
rradius 53.4081
rwrist 14.9117
rhand -25.0445 37.7416
rfingers 7.12502
rthumb 1.46859 7.76691
lclavicle -1.19271e-014 -1.33186e-014
lhumerus 94.4816 19.2735 62.0261
lradius 58.3458
lwrist -33.7791
lhand -21.2527 25.4686
lfingers 7.12502
lthumb 5.13035 55.3865
rfemur -20.8315 3.88346 22.061
rtibia 50.0473
rfoot 8.78114 -6.86147
rtoes 23.232
lfemur -19.5698 -12.7484 -22.527
ltibia 28.1228
lfoot 5.96593 7.23763
ltoes -29.48
464
root 6.38953 21.2518 0.887304 179.178 -86.0053 -139.311
lowerback 6.97423 0.249262 0.967653
upperback -2.72635 0.42464 0.0317935
thorax -6.76138 0.165279 -0.564226
lowerneck 5.7655 3.76034 -16.6878
upperneck 32.9535 -0.507162 15.078
head 9.263 -1.56381 8.37622
rclavicle 1.19271e-015 3.99557e-014
rhumerus 93.043 -21.7551 -66.3089
rradius 53.3052
rwrist 15.3177
rhand -25.5264 39.4759
rfingers 7.12502
rthumb 1.00319 9.49852
lclavicle 1.19271e-015 3.99557e-014
lhumerus 94.1764 19.7314 61.832
lradius 58.438
lwrist -33.5751
lhand -21.8588 26.7494
lfingers 7.12502
lthumb 4.54509 56.6806
rfemur -21.8474 5.18696 23.1533
rtibia 49.1225
rfoot 8.52259 -6.89107
rtoes 23.8351
lfemur -21.2429 -12.9166 -21.0655
ltibia 28.3801
lfoot 5.11223 7.45294
ltoes -26.4628
465
root 6.49455 21.3548 0.916061 160.493 -85.9045 -120.747
lowerback 8.1793 0.100228 2.46847
upperback -2.93278 0.429735 0.339697
thorax -7.67295 0.0958072 -1.09324
lowerneck 7.98688 3.30859 -14.9675
upperneck 31.321 -0.727849 12.6568
head 8.39194 -1.66393 6.9983
rclavicle -8.94531e-015 -6.36111e-015
rhumerus 92.3999 -21.7778 -66.0777
rradius 53.4318
rwrist 14.9174
rhand -26.5258 38.9953
rfingers 7.12502
rthumb 0.0379421 9.01559
lclavicle -8.94531e-015 -6.36111e-015
lhumerus 94.3775 18.977 62.9952
lradius 57.8597
lwrist -33.8208
lhand -21.3734 24.2799
lfingers 7.12502
lthumb 5.01378 54.2006
rfemur -21.8882 5.41113 24.623
rtibia 48.0489
rfoot 8.51488 -6.29049
rtoes 25.553
lfemur -22.1927 -13.3069 -19.5062
ltibia 28.8159
lfoot 4.5667 7.17622
ltoes -27.4712
466
root 6.5887 21.4547 0.91658 163.296 -86.1506 -123.507
lowerback 8.92404 0.0244698 2.06072
upperback -3.0557 0.296616 0.229961
thorax -8.24272 0.0413465 -0.963472
lowerneck 10.3581 2.5325 -12.6073
upperneck 29.2562 -1.16403 9.62084
head 7.40094 -1.81904 5.36852
rclavicle -2.04748e-014 -2.127e-014
rhumerus 93.2281 -20.7275 -66.7591
rradius 52.3166
rwrist 15.9527
rhand -27.1735 36.7762
rfingers 7.12502
rthumb -0.587624 6.79725
lclavicle -2.04748e-014 -2.127e-014
lhumerus 93.697 19.0553 62.2026
lradius 58.6398
lwrist -33.2087
lhand -21.2286 24.914
lfingers 7.12502
lthumb 5.15366 54.8313
rfemur -22.324 5.40796 24.4393
rtibia 47.003
rfoot 8.67525 -5.62544
rtoes 27.4937
lfemur -23.2474 -13.1515 -19.69
ltibia 29.23
lfoot 4.26593 6.50043
ltoes -31.4201
467
root 6.65586 21.5478 0.934445 165.181 -86.722 -125.089
lowerback 9.04134 -0.184082 2.10585
upperback -3.04463 0.0174029 0.116924
thorax -8.30824 -0.100667 -1.06426
lowerneck 12.3934 1.73061 -10.8351
upperneck 27.0422 -1.64832 7.04509
head 6.41389 -1.99563 4.11083
rclavicle -2.18663e-014 -4.85035e-014
rhumerus 93.5246 -20.4307 -67.0276
rradius 51.8946
rwrist 16.289
rhand -26.063 36.7903
rfingers 7.12502
rthumb 0.484922 6.81106
lclavicle -2.18663e-014 -4.85035e-014
lhumerus 93.8838 18.7655 62.6408
lradius 58.4288
lwrist -33.5859
lhand -21.6026 24.4255
lfingers 7.12502
lthumb 4.79246 54.3513
rfemur -23.0174 5.09368 24.11
rtibia 46.0246
rfoot 8.6257 -4.99933
rtoes 29.1254
lfemur -24.4592 -13.0397 -19.982
ltibia 29.4313
lfoot 3.9048 5.98785
ltoes -31.6436
